<mxfile host="65bd71144e">
    <diagram id="HWT9DzkSl9F1vXh2vKnS" name="Page-1">
        <mxGraphModel dx="1483" dy="784" grid="1" gridSize="10" guides="1" tooltips="1" connect="1" arrows="1" fold="1" page="1" pageScale="1" pageWidth="850" pageHeight="1100" math="0" shadow="0">
            <root>
                <mxCell id="0"/>
                <mxCell id="1" parent="0"/>
                <mxCell id="actor_user" value="Người dùng" style="shape=umlActor;verticalLabelPosition=bottom;verticalAlign=top;html=1;" parent="1" vertex="1">
                    <mxGeometry x="100" y="80" width="30" height="60" as="geometry"/>
                </mxCell>
                <mxCell id="UI_class" value="&lt;b&gt;:Giao diện&lt;/b&gt;" style="html=1;whiteSpace=wrap;" parent="1" vertex="1">
                    <mxGeometry x="220" y="80" width="100" height="50" as="geometry"/>
                </mxCell>
                <mxCell id="Transfer_controller_class" value="&lt;b&gt;:TransferController&lt;/b&gt;" style="html=1;whiteSpace=wrap;" vertex="1" parent="1">
                    <mxGeometry x="380" y="80" width="140" height="50" as="geometry"/>
                </mxCell>
                <mxCell id="Product_class" value="&lt;b&gt;:Product&lt;/b&gt;" style="html=1;whiteSpace=wrap;" vertex="1" parent="1">
                    <mxGeometry x="580" y="80" width="100" height="50" as="geometry"/>
                </mxCell>
                <mxCell id="Warehouse_class" value="&lt;b&gt;:Warehouse&lt;/b&gt;" style="html=1;whiteSpace=wrap;" vertex="1" parent="1">
                    <mxGeometry x="740" y="80" width="100" height="50" as="geometry"/>
                </mxCell>
                <mxCell id="Inventory_class" value="&lt;b&gt;:Inventory&lt;/b&gt;" style="html=1;whiteSpace=wrap;" vertex="1" parent="1">
                    <mxGeometry x="900" y="80" width="100" height="50" as="geometry"/>
                </mxCell>
                <mxCell id="StockMovement_class" value="&lt;b&gt;:StockMovement&lt;/b&gt;" style="html=1;whiteSpace=wrap;" vertex="1" parent="1">
                    <mxGeometry x="1060" y="80" width="120" height="50" as="geometry"/>
                </mxCell>
                <mxCell id="Store_class" value="&lt;b&gt;:Store&lt;/b&gt;" style="html=1;whiteSpace=wrap;" vertex="1" parent="1">
                    <mxGeometry x="1240" y="80" width="100" height="50" as="geometry"/>
                </mxCell>
                <mxCell id="User_line" value="" style="html=1;points=[];perimeter=orthogonalPerimeter;outlineConnect=0;targetShapes=umlLifeline;portConstraint=eastwest;newEdgeStyle={&quot;edgeStyle&quot;:&quot;elbowEdgeStyle&quot;,&quot;elbow&quot;:&quot;vertical&quot;,&quot;curved&quot;:0,&quot;rounded&quot;:0};" parent="1" vertex="1">
                    <mxGeometry x="115" y="160" width="10" height="800" as="geometry"/>
                </mxCell>
                <mxCell id="UI_line" value="" style="html=1;points=[];perimeter=orthogonalPerimeter;outlineConnect=0;targetShapes=umlLifeline;portConstraint=eastwest;newEdgeStyle={&quot;edgeStyle&quot;:&quot;elbowEdgeStyle&quot;,&quot;elbow&quot;:&quot;vertical&quot;,&quot;curved&quot;:0,&quot;rounded&quot;:0};" parent="1" vertex="1">
                    <mxGeometry x="265" y="160" width="10" height="800" as="geometry"/>
                </mxCell>
                <mxCell id="Transfer_controller_line" value="" style="html=1;points=[];perimeter=orthogonalPerimeter;outlineConnect=0;targetShapes=umlLifeline;portConstraint=eastwest;newEdgeStyle={&quot;edgeStyle&quot;:&quot;elbowEdgeStyle&quot;,&quot;elbow&quot;:&quot;vertical&quot;,&quot;curved&quot;:0,&quot;rounded&quot;:0};" vertex="1" parent="1">
                    <mxGeometry x="445" y="160" width="10" height="800" as="geometry"/>
                </mxCell>
                <mxCell id="Product_line" value="" style="html=1;points=[];perimeter=orthogonalPerimeter;outlineConnect=0;targetShapes=umlLifeline;portConstraint=eastwest;newEdgeStyle={&quot;edgeStyle&quot;:&quot;elbowEdgeStyle&quot;,&quot;elbow&quot;:&quot;vertical&quot;,&quot;curved&quot;:0,&quot;rounded&quot;:0};" vertex="1" parent="1">
                    <mxGeometry x="625" y="160" width="10" height="800" as="geometry"/>
                </mxCell>
                <mxCell id="Warehouse_line" value="" style="html=1;points=[];perimeter=orthogonalPerimeter;outlineConnect=0;targetShapes=umlLifeline;portConstraint=eastwest;newEdgeStyle={&quot;edgeStyle&quot;:&quot;elbowEdgeStyle&quot;,&quot;elbow&quot;:&quot;vertical&quot;,&quot;curved&quot;:0,&quot;rounded&quot;:0};" vertex="1" parent="1">
                    <mxGeometry x="785" y="160" width="10" height="800" as="geometry"/>
                </mxCell>
                <mxCell id="Inventory_line" value="" style="html=1;points=[];perimeter=orthogonalPerimeter;outlineConnect=0;targetShapes=umlLifeline;portConstraint=eastwest;newEdgeStyle={&quot;edgeStyle&quot;:&quot;elbowEdgeStyle&quot;,&quot;elbow&quot;:&quot;vertical&quot;,&quot;curved&quot;:0,&quot;rounded&quot;:0};" vertex="1" parent="1">
                    <mxGeometry x="945" y="160" width="10" height="800" as="geometry"/>
                </mxCell>
                <mxCell id="StockMovement_line" value="" style="html=1;points=[];perimeter=orthogonalPerimeter;outlineConnect=0;targetShapes=umlLifeline;portConstraint=eastwest;newEdgeStyle={&quot;edgeStyle&quot;:&quot;elbowEdgeStyle&quot;,&quot;elbow&quot;:&quot;vertical&quot;,&quot;curved&quot;:0,&quot;rounded&quot;:0};" vertex="1" parent="1">
                    <mxGeometry x="1115" y="160" width="10" height="800" as="geometry"/>
                </mxCell>
                <mxCell id="Store_line" value="" style="html=1;points=[];perimeter=orthogonalPerimeter;outlineConnect=0;targetShapes=umlLifeline;portConstraint=eastwest;newEdgeStyle={&quot;edgeStyle&quot;:&quot;elbowEdgeStyle&quot;,&quot;elbow&quot;:&quot;vertical&quot;,&quot;curved&quot;:0,&quot;rounded&quot;:0};" vertex="1" parent="1">
                    <mxGeometry x="1285" y="160" width="10" height="800" as="geometry"/>
                </mxCell>
                <mxCell id="User_to_line" value="" style="endArrow=none;dashed=1;html=1;rounded=0;exitX=0.5;exitY=1;exitDx=0;exitDy=0;entryX=0.5;entryY=0;entryDx=0;entryDy=0;" parent="1" source="actor_user" target="User_line" edge="1">
                    <mxGeometry width="50" height="50" relative="1" as="geometry">
                        <mxPoint x="390" y="340" as="sourcePoint"/>
                        <mxPoint x="440" y="290" as="targetPoint"/>
                    </mxGeometry>
                </mxCell>
                <mxCell id="UI_class_to_line" value="" style="endArrow=none;dashed=1;html=1;rounded=0;exitX=0.5;exitY=1;exitDx=0;exitDy=0;entryX=0.5;entryY=0;entryDx=0;entryDy=0;" parent="1" source="UI_class" target="UI_line" edge="1">
                    <mxGeometry width="50" height="50" relative="1" as="geometry">
                        <mxPoint x="390" y="340" as="sourcePoint"/>
                        <mxPoint x="440" y="290" as="targetPoint"/>
                    </mxGeometry>
                </mxCell>
                <mxCell id="Transfer_controller_to_line" value="" style="endArrow=none;dashed=1;html=1;rounded=0;exitX=0.5;exitY=1;exitDx=0;exitDy=0;entryX=0.5;entryY=0;entryDx=0;entryDy=0;" edge="1" parent="1" source="Transfer_controller_class" target="Transfer_controller_line">
                    <mxGeometry width="50" height="50" relative="1" as="geometry">
                        <mxPoint x="390" y="340" as="sourcePoint"/>
                        <mxPoint x="440" y="290" as="targetPoint"/>
                    </mxGeometry>
                </mxCell>
                <mxCell id="Product_to_line" value="" style="endArrow=none;dashed=1;html=1;rounded=0;exitX=0.5;exitY=1;exitDx=0;exitDy=0;entryX=0.5;entryY=0;entryDx=0;entryDy=0;" edge="1" parent="1" source="Product_class" target="Product_line">
                    <mxGeometry width="50" height="50" relative="1" as="geometry">
                        <mxPoint x="390" y="340" as="sourcePoint"/>
                        <mxPoint x="440" y="290" as="targetPoint"/>
                    </mxGeometry>
                </mxCell>
                <mxCell id="Warehouse_to_line" value="" style="endArrow=none;dashed=1;html=1;rounded=0;exitX=0.5;exitY=1;exitDx=0;exitDy=0;entryX=0.5;entryY=0;entryDx=0;entryDy=0;" edge="1" parent="1" source="Warehouse_class" target="Warehouse_line">
                    <mxGeometry width="50" height="50" relative="1" as="geometry">
                        <mxPoint x="390" y="340" as="sourcePoint"/>
                        <mxPoint x="440" y="290" as="targetPoint"/>
                    </mxGeometry>
                </mxCell>
                <mxCell id="Inventory_to_line" value="" style="endArrow=none;dashed=1;html=1;rounded=0;exitX=0.5;exitY=1;exitDx=0;exitDy=0;entryX=0.5;entryY=0;entryDx=0;entryDy=0;" edge="1" parent="1" source="Inventory_class" target="Inventory_line">
                    <mxGeometry width="50" height="50" relative="1" as="geometry">
                        <mxPoint x="390" y="340" as="sourcePoint"/>
                        <mxPoint x="440" y="290" as="targetPoint"/>
                    </mxGeometry>
                </mxCell>
                <mxCell id="StockMovement_to_line" value="" style="endArrow=none;dashed=1;html=1;rounded=0;exitX=0.5;exitY=1;exitDx=0;exitDy=0;entryX=0.5;entryY=0;entryDx=0;entryDy=0;" edge="1" parent="1" source="StockMovement_class" target="StockMovement_line">
                    <mxGeometry width="50" height="50" relative="1" as="geometry">
                        <mxPoint x="390" y="340" as="sourcePoint"/>
                        <mxPoint x="440" y="290" as="targetPoint"/>
                    </mxGeometry>
                </mxCell>
                <mxCell id="Store_to_line" value="" style="endArrow=none;dashed=1;html=1;rounded=0;exitX=0.5;exitY=1;exitDx=0;exitDy=0;entryX=0.5;entryY=0;entryDx=0;entryDy=0;" edge="1" parent="1" source="Store_class" target="Store_line">
                    <mxGeometry width="50" height="50" relative="1" as="geometry">
                        <mxPoint x="390" y="340" as="sourcePoint"/>
                        <mxPoint x="440" y="290" as="targetPoint"/>
                    </mxGeometry>
                </mxCell>
                <mxCell id="transfer_title" value="&lt;b&gt;Chuyển hàng từ kho đến cửa hàng&lt;/b&gt;" style="text;html=1;strokeColor=none;fillColor=none;align=left;verticalAlign=middle;whiteSpace=wrap;rounded=0;" vertex="1" parent="1">
                    <mxGeometry x="40" y="170" width="80" height="30" as="geometry"/>
                </mxCell>
                <mxCell id="msg1" value="1: Chọn chuyển hàng từ kho đến cửa hàng" style="html=1;verticalAlign=bottom;endArrow=block;edgeStyle=elbowEdgeStyle;elbow=vertical;curved=0;rounded=0;" parent="1" source="User_line" target="UI_line" edge="1">
                    <mxGeometry width="80" relative="1" as="geometry">
                        <mxPoint x="130" y="200" as="sourcePoint"/>
                        <mxPoint x="210" y="200" as="targetPoint"/>
                        <Array as="points">
                            <mxPoint x="190" y="200"/>
                        </Array>
                    </mxGeometry>
                </mxCell>
                <mxCell id="msg2" value="2: transferToStore(productId, warehouseId, storeId, quantity)" style="html=1;verticalAlign=bottom;endArrow=block;edgeStyle=elbowEdgeStyle;elbow=vertical;curved=0;rounded=0;" parent="1" edge="1">
                    <mxGeometry width="80" relative="1" as="geometry">
                        <mxPoint x="275" y="230" as="sourcePoint"/>
                        <mxPoint x="445" y="230" as="targetPoint"/>
                    </mxGeometry>
                </mxCell>
                <mxCell id="msg3" value="3: getProduct(productId)" style="html=1;verticalAlign=bottom;endArrow=block;edgeStyle=elbowEdgeStyle;elbow=vertical;curved=0;rounded=0;" parent="1" edge="1">
                    <mxGeometry width="80" relative="1" as="geometry">
                        <mxPoint x="455" y="260" as="sourcePoint"/>
                        <mxPoint x="625" y="260" as="targetPoint"/>
                    </mxGeometry>
                </mxCell>
                <mxCell id="msg4" value="4: product data" style="html=1;verticalAlign=bottom;endArrow=open;dashed=1;endSize=8;edgeStyle=elbowEdgeStyle;elbow=vertical;curved=0;rounded=0;" parent="1" edge="1">
                    <mxGeometry relative="1" as="geometry">
                        <mxPoint x="625" y="290" as="sourcePoint"/>
                        <mxPoint x="455" y="290" as="targetPoint"/>
                    </mxGeometry>
                </mxCell>
                <mxCell id="msg5" value="5: getWarehouse(warehouseId)" style="html=1;verticalAlign=bottom;endArrow=block;edgeStyle=elbowEdgeStyle;elbow=vertical;curved=0;rounded=0;" parent="1" edge="1">
                    <mxGeometry width="80" relative="1" as="geometry">
                        <mxPoint x="455" y="320" as="sourcePoint"/>
                        <mxPoint x="785" y="320" as="targetPoint"/>
                    </mxGeometry>
                </mxCell>
                <mxCell id="msg6" value="6: warehouse data" style="html=1;verticalAlign=bottom;endArrow=open;dashed=1;endSize=8;edgeStyle=elbowEdgeStyle;elbow=vertical;curved=0;rounded=0;" parent="1" edge="1">
                    <mxGeometry relative="1" as="geometry">
                        <mxPoint x="785" y="350" as="sourcePoint"/>
                        <mxPoint x="455" y="350" as="targetPoint"/>
                    </mxGeometry>
                </mxCell>
                <mxCell id="msg7" value="7: getStore(storeId)" style="html=1;verticalAlign=bottom;endArrow=block;edgeStyle=elbowEdgeStyle;elbow=vertical;curved=0;rounded=0;" parent="1" edge="1">
                    <mxGeometry width="80" relative="1" as="geometry">
                        <mxPoint x="455" y="380" as="sourcePoint"/>
                        <mxPoint x="1285" y="380" as="targetPoint"/>
                    </mxGeometry>
                </mxCell>
                <mxCell id="msg8" value="8: store data" style="html=1;verticalAlign=bottom;endArrow=open;dashed=1;endSize=8;edgeStyle=elbowEdgeStyle;elbow=vertical;curved=0;rounded=0;" parent="1" edge="1">
                    <mxGeometry relative="1" as="geometry">
                        <mxPoint x="1285" y="410" as="sourcePoint"/>
                        <mxPoint x="455" y="410" as="targetPoint"/>
                    </mxGeometry>
                </mxCell>
                <mxCell id="msg9" value="9: getInventory(productId, warehouseId)" style="html=1;verticalAlign=bottom;endArrow=block;edgeStyle=elbowEdgeStyle;elbow=vertical;curved=0;rounded=0;" parent="1" edge="1">
                    <mxGeometry width="80" relative="1" as="geometry">
                        <mxPoint x="455" y="440" as="sourcePoint"/>
                        <mxPoint x="945" y="440" as="targetPoint"/>
                    </mxGeometry>
                </mxCell>
                <mxCell id="msg10" value="10: inventory data" style="html=1;verticalAlign=bottom;endArrow=open;dashed=1;endSize=8;edgeStyle=elbowEdgeStyle;elbow=vertical;curved=0;rounded=0;" parent="1" edge="1">
                    <mxGeometry relative="1" as="geometry">
                        <mxPoint x="945" y="470" as="sourcePoint"/>
                        <mxPoint x="455" y="470" as="targetPoint"/>
                    </mxGeometry>
                </mxCell>
                <mxCell id="msg11" value="11: checkQuantity(quantity)" style="html=1;verticalAlign=bottom;endArrow=block;edgeStyle=elbowEdgeStyle;elbow=vertical;curved=0;rounded=0;" parent="1" edge="1">
                    <mxGeometry width="80" relative="1" as="geometry">
                        <mxPoint x="455" y="500" as="sourcePoint"/>
                        <mxPoint x="945" y="500" as="targetPoint"/>
                    </mxGeometry>
                </mxCell>
                <mxCell id="msg12" value="12: quantity available" style="html=1;verticalAlign=bottom;endArrow=open;dashed=1;endSize=8;edgeStyle=elbowEdgeStyle;elbow=vertical;curved=0;rounded=0;" parent="1" edge="1">
                    <mxGeometry relative="1" as="geometry">
                        <mxPoint x="945" y="530" as="sourcePoint"/>
                        <mxPoint x="455" y="530" as="targetPoint"/>
                    </mxGeometry>
                </mxCell>
                <mxCell id="msg13" value="13: adjustQuantity(-quantity)" style="html=1;verticalAlign=bottom;endArrow=block;edgeStyle=elbowEdgeStyle;elbow=vertical;curved=0;rounded=0;" parent="1" edge="1">
                    <mxGeometry width="80" relative="1" as="geometry">
                        <mxPoint x="455" y="560" as="sourcePoint"/>
                        <mxPoint x="945" y="560" as="targetPoint"/>
                    </mxGeometry>
                </mxCell>
                <mxCell id="msg14" value="14: quantity adjusted" style="html=1;verticalAlign=bottom;endArrow=open;dashed=1;endSize=8;edgeStyle=elbowEdgeStyle;elbow=vertical;curved=0;rounded=0;" parent="1" edge="1">
                    <mxGeometry relative="1" as="geometry">
                        <mxPoint x="945" y="590" as="sourcePoint"/>
                        <mxPoint x="455" y="590" as="targetPoint"/>
                    </mxGeometry>
                </mxCell>
                <mxCell id="msg15" value="15: recordMovement()" style="html=1;verticalAlign=bottom;endArrow=block;edgeStyle=elbowEdgeStyle;elbow=vertical;curved=0;rounded=0;" parent="1" edge="1">
                    <mxGeometry width="80" relative="1" as="geometry">
                        <mxPoint x="455" y="620" as="sourcePoint"/>
                        <mxPoint x="1115" y="620" as="targetPoint"/>
                    </mxGeometry>
                </mxCell>
                <mxCell id="msg16" value="16: create movement record" style="html=1;verticalAlign=bottom;endArrow=block;edgeStyle=elbowEdgeStyle;elbow=vertical;curved=0;rounded=0;" parent="1" edge="1">
                    <mxGeometry width="80" relative="1" as="geometry">
                        <mxPoint x="1125" y="650" as="sourcePoint"/>
                        <mxPoint x="1125" y="680" as="targetPoint"/>
                        <Array as="points">
                            <mxPoint x="1165" y="650"/>
                            <mxPoint x="1165" y="680"/>
                        </Array>
                    </mxGeometry>
                </mxCell>
                <mxCell id="self_call" value="" style="html=1;points=[];perimeter=orthogonalPerimeter;outlineConnect=0;targetShapes=umlLifeline;portConstraint=eastwest;newEdgeStyle={&quot;edgeStyle&quot;:&quot;elbowEdgeStyle&quot;,&quot;elbow&quot;:&quot;vertical&quot;,&quot;curved&quot;:0,&quot;rounded&quot;:0};" parent="1" vertex="1">
                    <mxGeometry x="1120" y="660" width="10" height="40" as="geometry"/>
                </mxCell>
                <mxCell id="msg17" value="17: movement recorded" style="html=1;verticalAlign=bottom;endArrow=open;dashed=1;endSize=8;edgeStyle=elbowEdgeStyle;elbow=vertical;curved=0;rounded=0;" parent="1" edge="1">
                    <mxGeometry relative="1" as="geometry">
                        <mxPoint x="1115" y="710" as="sourcePoint"/>
                        <mxPoint x="455" y="710" as="targetPoint"/>
                    </mxGeometry>
                </mxCell>
                <mxCell id="msg18" value="18: receiveStock(productId, quantity)" style="html=1;verticalAlign=bottom;endArrow=block;edgeStyle=elbowEdgeStyle;elbow=vertical;curved=0;rounded=0;" parent="1" edge="1">
                    <mxGeometry width="80" relative="1" as="geometry">
                        <mxPoint x="455" y="740" as="sourcePoint"/>
                        <mxPoint x="1285" y="740" as="targetPoint"/>
                    </mxGeometry>
                </mxCell>
                <mxCell id="msg19" value="19: update store stock" style="html=1;verticalAlign=bottom;endArrow=block;edgeStyle=elbowEdgeStyle;elbow=vertical;curved=0;rounded=0;" parent="1" edge="1">
                    <mxGeometry width="80" relative="1" as="geometry">
                        <mxPoint x="1295" y="770" as="sourcePoint"/>
                        <mxPoint x="1295" y="800" as="targetPoint"/>
                        <Array as="points">
                            <mxPoint x="1335" y="770"/>
                            <mxPoint x="1335" y="800"/>
                        </Array>
                    </mxGeometry>
                </mxCell>
                <mxCell id="self_call2" value="" style="html=1;points=[];perimeter=orthogonalPerimeter;outlineConnect=0;targetShapes=umlLifeline;portConstraint=eastwest;newEdgeStyle={&quot;edgeStyle&quot;:&quot;elbowEdgeStyle&quot;,&quot;elbow&quot;:&quot;vertical&quot;,&quot;curved&quot;:0,&quot;rounded&quot;:0};" vertex="1" parent="1">
                    <mxGeometry x="1290" y="780" width="10" height="40" as="geometry"/>
                </mxCell>
                <mxCell id="msg20" value="20: stock received" style="html=1;verticalAlign=bottom;endArrow=open;dashed=1;endSize=8;edgeStyle=elbowEdgeStyle;elbow=vertical;curved=0;rounded=0;" parent="1" edge="1">
                    <mxGeometry relative="1" as="geometry">
                        <mxPoint x="1285" y="830" as="sourcePoint"/>
                        <mxPoint x="455" y="830" as="targetPoint"/>
                    </mxGeometry>
                </mxCell>
                <mxCell id="msg21" value="21: notifyStoreReceived()" style="html=1;verticalAlign=bottom;endArrow=block;edgeStyle=elbowEdgeStyle;elbow=vertical;curved=0;rounded=0;" parent="1" edge="1">
                    <mxGeometry width="80" relative="1" as="geometry">
                        <mxPoint x="455" y="860" as="sourcePoint"/>
                        <mxPoint x="1115" y="860" as="targetPoint"/>
                    </mxGeometry>
                </mxCell>
                <mxCell id="msg22" value="22: notification sent" style="html=1;verticalAlign=bottom;endArrow=open;dashed=1;endSize=8;edgeStyle=elbowEdgeStyle;elbow=vertical;curved=0;rounded=0;" parent="1" edge="1">
                    <mxGeometry relative="1" as="geometry">
                        <mxPoint x="1115" y="890" as="sourcePoint"/>
                        <mxPoint x="455" y="890" as="targetPoint"/>
                    </mxGeometry>
                </mxCell>
                <mxCell id="msg23" value="23: transfer successful" style="html=1;verticalAlign=bottom;endArrow=open;dashed=1;endSize=8;edgeStyle=elbowEdgeStyle;elbow=vertical;curved=0;rounded=0;" parent="1" edge="1">
                    <mxGeometry relative="1" as="geometry">
                        <mxPoint x="445" y="920" as="sourcePoint"/>
                        <mxPoint x="275" y="920" as="targetPoint"/>
                    </mxGeometry>
                </mxCell>
                <mxCell id="msg24" value="24: Hiển thị thông báo chuyển hàng thành công" style="html=1;verticalAlign=bottom;endArrow=open;dashed=1;endSize=8;edgeStyle=elbowEdgeStyle;elbow=vertical;curved=0;rounded=0;" parent="1" edge="1">
                    <mxGeometry relative="1" as="geometry">
                        <mxPoint x="265" y="950" as="sourcePoint"/>
                        <mxPoint x="125" y="950" as="targetPoint"/>
                    </mxGeometry>
                </mxCell>
                <mxCell id="diagram_title" value="&lt;font style=&quot;font-size: 14px;&quot;&gt;&lt;b&gt;4. InventoryTransferSequence&lt;/b&gt;&lt;/font&gt;" style="text;html=1;strokeColor=none;fillColor=none;align=center;verticalAlign=middle;whiteSpace=wrap;rounded=0;" parent="1" vertex="1">
                    <mxGeometry x="500" y="20" width="250" height="30" as="geometry"/>
                </mxCell>
            </root>
        </mxGraphModel>
    </diagram>
</mxfile>